<svg width="128" height="128" viewBox="0 0 128 128" fill="none" xmlns="http://www.w3.org/2000/svg">
  <defs>
    <linearGradient id="bhMarkBg" x1="18" y1="14" x2="108" y2="114" gradientUnits="userSpaceOnUse">
      <stop offset="0" stop-color="#0F172A"/>
      <stop offset="1" stop-color="#020617"/>
    </linearGradient>
    <filter id="bhShadow" x="0" y="0" width="128" height="128" filterUnits="userSpaceOnUse" color-interpolation-filters="sRGB">
      <feDropShadow dx="0" dy="16" stdDeviation="12" flood-color="#6366F1" flood-opacity="0.24"/>
    </filter>
  </defs>
  <g filter="url(#bhShadow)">
    <rect x="10" y="10" width="108" height="108" rx="30" fill="url(#bhMarkBg)"/>
    <rect x="12" y="12" width="104" height="104" rx="28" stroke="rgba(255,255,255,0.08)" stroke-width="2"/>
  </g>
  <circle cx="64" cy="64" r="30" stroke="#6366F1" stroke-opacity="0.55" stroke-width="4"/>
  <circle cx="94" cy="34" r="7" fill="#10B981" stroke="#020617" stroke-width="3"/>
  <path d="M66.2 38.5C72.7 42.8 76.1 50.2 75.2 58.2L87.4 70.4C89.2 72.2 89.2 75.2 87.4 77L82.9 81.5C81.1 83.3 78.1 83.3 76.3 81.5L64.1 69.3C56.1 70.2 48.7 66.8 44.4 60.3L53.4 59.2L60.1 52.5L61.2 43.5L66.2 38.5Z" fill="white"/>
  <path d="M57.8 78.4L50.6 85.6" stroke="white" stroke-width="4.5" stroke-linecap="round"/>
  <path d="M50.8 71.4L43.6 78.6" stroke="white" stroke-width="4.5" stroke-linecap="round"/>
  <path d="M40 92L49 89L43 83L40 92Z" fill="#F59E0B"/>
</svg>
